<?xml version="1.0" encoding="UTF-8"?>
<svg xmlns="http://www.w3.org/2000/svg" xmlns:xlink="http://www.w3.org/1999/xlink" width="1280" height="1024" viewBox="0 0 1280 1024">
<defs>
<g>
<g id="glyph-0-0">
<path d="M 0.5 -2.109375 C 0.445312 -2.109375 0.398438 -2.125 0.359375 -2.15625 C 0.328125 -2.1875 0.3125 -2.242188 0.3125 -2.328125 C 0.3125 -2.398438 0.328125 -2.453125 0.359375 -2.484375 C 0.398438 -2.515625 0.445312 -2.53125 0.5 -2.53125 C 0.550781 -2.53125 0.59375 -2.515625 0.625 -2.484375 C 0.664062 -2.453125 0.6875 -2.398438 0.6875 -2.328125 C 0.6875 -2.242188 0.664062 -2.1875 0.625 -2.15625 C 0.59375 -2.125 0.550781 -2.109375 0.5 -2.109375 Z M -0.046875 0.796875 L -0.046875 0.640625 L -0.015625 0.640625 C 0.0664062 0.640625 0.132812 0.617188 0.1875 0.578125 C 0.238281 0.546875 0.28125 0.484375 0.3125 0.390625 C 0.34375 0.304688 0.359375 0.1875 0.359375 0.03125 L 0.359375 -1.421875 C 0.359375 -1.515625 0.332031 -1.570312 0.28125 -1.59375 C 0.226562 -1.625 0.164062 -1.640625 0.09375 -1.640625 L 0.078125 -1.640625 L 0.078125 -1.78125 L 0.671875 -1.78125 L 0.671875 0.03125 C 0.671875 0.226562 0.640625 0.378906 0.578125 0.484375 C 0.523438 0.597656 0.445312 0.675781 0.34375 0.71875 C 0.25 0.769531 0.140625 0.796875 0.015625 0.796875 Z "/>
</g>
<g id="glyph-0-1">
<path d="M -0.015625 0.46875 L -0.015625 0.28125 L 1.546875 0.28125 L 1.546875 0.46875 Z "/>
</g>
<g id="glyph-0-2">
<path d="M 0.71875 0 L 0.71875 -0.140625 L 0.8125 -0.140625 C 0.882812 -0.140625 0.945312 -0.148438 1 -0.171875 C 1.050781 -0.203125 1.078125 -0.269531 1.078125 -0.375 L 1.078125 -0.65625 L 0.0625 -0.65625 L 0.0625 -0.78125 L 1.078125 -2.375 L 1.40625 -2.375 L 1.40625 -0.84375 L 1.8125 -0.84375 L 1.8125 -0.65625 L 1.40625 -0.65625 L 1.40625 -0.375 C 1.40625 -0.269531 1.429688 -0.203125 1.484375 -0.171875 C 1.535156 -0.148438 1.597656 -0.140625 1.671875 -0.140625 L 1.71875 -0.140625 L 1.71875 0 Z M 0.296875 -0.84375 L 1.078125 -0.84375 L 1.078125 -1.453125 C 1.078125 -1.515625 1.078125 -1.585938 1.078125 -1.671875 C 1.078125 -1.753906 1.078125 -1.835938 1.078125 -1.921875 C 1.085938 -2.003906 1.097656 -2.078125 1.109375 -2.140625 C 1.097656 -2.117188 1.078125 -2.085938 1.046875 -2.046875 C 1.023438 -2.003906 1 -1.957031 0.96875 -1.90625 C 0.9375 -1.851562 0.90625 -1.800781 0.875 -1.75 C 0.84375 -1.695312 0.820312 -1.65625 0.8125 -1.625 Z "/>
</g>
</g>
</defs>
<g fill="rgb(100%, 100%, 100%)" fill-opacity="1">
<use xlink:href="#glyph-0-0" x="30" y="23.5625"/>
<use xlink:href="#glyph-0-1" x="31" y="23.5625"/>
<use xlink:href="#glyph-0-2" x="33" y="23.5625"/>
</g>
</svg>
