<?xml version="1.0" encoding="UTF-8"?>
<svg xmlns="http://www.w3.org/2000/svg" xmlns:xlink="http://www.w3.org/1999/xlink" width="1280" height="1024" viewBox="0 0 1280 1024">
<defs>
<g>
<g id="glyph-0-0">
<path d="M 0.875 -2.109375 L 0.875 -0.328125 C 0.875 -0.265625 0.878906 -0.21875 0.890625 -0.1875 C 0.910156 -0.164062 0.929688 -0.144531 0.953125 -0.125 C 0.984375 -0.113281 1.015625 -0.101562 1.046875 -0.09375 C 1.085938 -0.09375 1.132812 -0.09375 1.1875 -0.09375 L 1.1875 -0.015625 L 0.40625 -0.015625 L 0.40625 -0.09375 C 0.445312 -0.09375 0.484375 -0.09375 0.515625 -0.09375 C 0.554688 -0.101562 0.585938 -0.113281 0.609375 -0.125 C 0.640625 -0.144531 0.660156 -0.164062 0.671875 -0.1875 C 0.691406 -0.21875 0.703125 -0.265625 0.703125 -0.328125 L 0.703125 -1.65625 C 0.703125 -1.707031 0.695312 -1.742188 0.6875 -1.765625 C 0.675781 -1.796875 0.660156 -1.8125 0.640625 -1.8125 C 0.617188 -1.820312 0.585938 -1.820312 0.546875 -1.8125 C 0.503906 -1.800781 0.445312 -1.78125 0.375 -1.75 L 0.375 -1.84375 Z "/>
</g>
<g id="glyph-0-1">
<path d="M 0.578125 0.015625 C 0.535156 0.015625 0.488281 0.0078125 0.4375 0 C 0.382812 -0.0078125 0.335938 -0.0195312 0.296875 -0.03125 C 0.253906 -0.0390625 0.21875 -0.0546875 0.1875 -0.078125 C 0.15625 -0.0976562 0.140625 -0.125 0.140625 -0.15625 C 0.140625 -0.1875 0.148438 -0.207031 0.171875 -0.21875 C 0.203125 -0.238281 0.234375 -0.25 0.265625 -0.25 C 0.296875 -0.25 0.328125 -0.238281 0.359375 -0.21875 C 0.390625 -0.207031 0.421875 -0.195312 0.453125 -0.1875 C 0.472656 -0.164062 0.503906 -0.144531 0.546875 -0.125 C 0.597656 -0.113281 0.644531 -0.109375 0.6875 -0.109375 C 0.75 -0.109375 0.800781 -0.117188 0.84375 -0.140625 C 0.894531 -0.171875 0.941406 -0.210938 0.984375 -0.265625 C 1.023438 -0.316406 1.054688 -0.375 1.078125 -0.4375 C 1.097656 -0.507812 1.109375 -0.585938 1.109375 -0.671875 C 1.109375 -0.878906 1.039062 -1.035156 0.90625 -1.140625 C 0.78125 -1.253906 0.585938 -1.300781 0.328125 -1.28125 C 0.296875 -1.28125 0.273438 -1.285156 0.265625 -1.296875 C 0.253906 -1.304688 0.253906 -1.316406 0.265625 -1.328125 L 0.546875 -2.0625 L 1.28125 -2.0625 L 1.25 -1.90625 L 0.609375 -1.90625 L 0.4375 -1.453125 C 0.570312 -1.460938 0.691406 -1.445312 0.796875 -1.40625 C 0.898438 -1.375 0.988281 -1.328125 1.0625 -1.265625 C 1.132812 -1.210938 1.191406 -1.140625 1.234375 -1.046875 C 1.273438 -0.960938 1.296875 -0.863281 1.296875 -0.75 C 1.296875 -0.644531 1.273438 -0.546875 1.234375 -0.453125 C 1.203125 -0.359375 1.148438 -0.273438 1.078125 -0.203125 C 1.015625 -0.140625 0.9375 -0.0859375 0.84375 -0.046875 C 0.757812 -0.00390625 0.671875 0.015625 0.578125 0.015625 Z "/>
</g>
</g>
</defs>
<g fill="rgb(100%, 100%, 100%)" fill-opacity="1">
<use xlink:href="#glyph-0-0" x="30" y="22.554688"/>
<use xlink:href="#glyph-0-1" x="31" y="22.554688"/>
</g>
</svg>
